
<svg id="Isolation_Mode" data-name="Isolation Mode" xmlns="http://www.w3.org/2000/svg" viewBox="0 0 799.98 769.58">
  <defs>
    <style>
      .cls-1 {
        fill: #363639;
      }
    </style>
  </defs>
  <path class="cls-1" d="m778.74,348.73L451.3,21.23c-13.59-13.59-32.05-21.23-51.26-21.23s-37.69,7.64-51.28,21.23L21.23,348.73c-20.73,20.73-26.94,51.65-15.71,78.74,11.24,27.09,37.67,44.5,67,44.5h41.83v234.24c0,35.03,27.96,63.38,63.01,63.38h55.74v-211.76c0-16.13,13.33-28.73,29.44-28.73h108.29c16.11,0,29.11,12.62,29.11,28.73v211.74h222.72c35.03,0,62.85-28.35,62.85-63.38v-234.22h41.96c29.32,0,55.75-17.4,67-44.5,11.21-27.09,5.01-58-15.73-78.74Z"/>
</svg>